<?xml version="1.0" encoding="UTF-8"?>
<svg version="1.1" xmlns="http://www.w3.org/2000/svg" width="216" height="228" viewBox="0 0 216 228">
<path d="M0 0 C71.28 0 142.56 0 216 0 C216 75.24 216 150.48 216 228 C144.72 228 73.44 228 0 228 C0 152.76 0 77.52 0 0 Z " fill="#F2F2F4" transform="translate(0,0)"/>
<path d="M0 0 C4.72475075 3.39101115 8.18756324 6.65245694 9.24609375 12.6015625 C9.37168856 18.99015189 8.90208586 23.26541075 4.58203125 28.14453125 C0.49051546 31.75826919 -3.36638604 33.49932747 -8.7578125 34.26953125 C-13.94505368 33.5284968 -18.19191518 31.96805408 -21.83984375 28.0859375 C-25.38183209 23.33946897 -26.73949154 19.01396619 -26.671875 12.99609375 C-25.65878061 7.54832203 -21.94431125 3.05448267 -17.6328125 -0.23046875 C-11.72441232 -2.71821619 -5.77670864 -3.14820627 0 0 Z " fill="#E1E1E3" transform="translate(118.2578125,160.23046875)"/>
<path d="M0 0 C4.21342165 2.9618333 7.10418975 5.77888218 8.6796875 10.80078125 C9.40322903 16.53743197 8.92738141 20.87324566 5.6796875 25.80078125 C-0.49323566 32.59099673 -0.49323566 32.59099673 -5.24609375 33.13671875 C-14.29298191 33.24106579 -14.29298191 33.24106579 -18.8203125 31.30078125 C-23.75164996 26.36944379 -26.60074298 22.3247847 -26.8828125 15.17578125 C-26.57392136 8.97221752 -24.41014334 5.72985587 -19.8828125 1.55078125 C-13.56598502 -2.76314971 -7.00229765 -3.61903262 0 0 Z " fill="#EDEDEF" transform="translate(76.3203125,40.19921875)"/>
<path d="M0 0 C4.4012614 2.56809061 7.57722597 5.35226914 9.64453125 10.08984375 C10.38108091 15.66767291 10.44575058 20.39495671 8.01953125 25.52734375 C0.47924727 33.66291331 0.47924727 33.66291331 -5.35546875 34.08984375 C-6.44859375 34.21359375 -7.54171875 34.33734375 -8.66796875 34.46484375 C-14.80131102 33.84111403 -18.71269715 30.90110474 -22.79296875 26.40234375 C-25.52751216 20.60511171 -26.04710424 15.43371959 -24.23046875 9.27734375 C-18.84757021 0.12641624 -10.32447404 -3.98939046 0 0 Z " fill="#EDEDEF" transform="translate(117.35546875,79.91015625)"/>
<path d="M0 0 C4.89186906 2.35534436 7.81078942 5.7173458 11 10 C12.81020278 15.43060835 12.70097747 20.09743772 10.3125 25.25 C7.78683892 29.76960404 4.88453813 32.18063559 0.125 34.25 C-4.65130103 35.39631225 -8.38948512 35.55875006 -13.0625 33.9375 C-17.63020417 30.92475895 -21.25296399 27.24110803 -23 22 C-23.59875655 16.38543042 -23.63295256 11.32375778 -20.37890625 6.5390625 C-14.71547252 0.21783618 -8.2904474 -1.36054888 0 0 Z " fill="#ECECEE" transform="translate(73,79)"/>
<path d="M0 0 C4.96388445 2.57386601 8.48539093 5.97078186 11 11 C11.73610672 17.0565743 12.02710481 22.44192485 8.375 27.5625 C4.73084421 31.61999754 1.6930079 33.74352306 -3.87109375 34.2734375 C-9.5538352 34.45428362 -13.29131883 34.46156018 -18 31 C-19.546875 29.31640625 -19.546875 29.31640625 -20.75 27.5625 C-21.36101562 26.69818359 -21.36101562 26.69818359 -21.984375 25.81640625 C-24.34016701 21.60316284 -24.75364902 16.72743474 -24 12 C-21.64760536 6.4029231 -18.36418755 2.91531932 -13 0 C-8.55774061 -1.48075313 -4.55152749 -0.91598603 0 0 Z " fill="#E3E3E4" transform="translate(116,39)"/>
<path d="M0 0 C4.18300671 2.75698169 6.30247003 5.26478482 8 10 C8.75000666 15.72265352 8.23641534 20.08957672 5 25 C1.43463976 29.02245771 -1.37309735 31.64801728 -6.76953125 32.37109375 C-12.57312046 32.49774461 -17.08383346 32.54540698 -21.59765625 28.60546875 C-26.15203217 23.39140607 -27.68685674 18.22609275 -27.390625 11.328125 C-26.52111665 6.14585525 -22.89727524 2.30677899 -19 -1 C-12.39232851 -4.57171432 -6.43718568 -3.33779998 0 0 Z " fill="#E0E0E2" transform="translate(77,122)"/>
<path d="M0 0 C5.5582412 2.18624154 9.39450172 5.58056357 12 11 C13.60173389 17.08436416 13.20478867 21.44503297 10 27 C5.76336849 32.17810518 1.20034201 34.59268374 -5.4375 35.4375 C-10.76753606 34.78293417 -14.78644645 33.22424704 -18.6171875 29.375 C-22.77109134 23.74258802 -23.01334179 17.77791823 -22 11 C-17.7295722 1.60505884 -9.92793867 -1.76877068 0 0 Z " fill="#E3E3E4" transform="translate(157,79)"/>
<path d="M0 0 C4.75178615 2.833308 8.32785808 6.03462241 10.83984375 11.05859375 C11.60503388 17.80731983 11.00785578 23.53948301 6.83984375 29.05859375 C1.02425767 33.68732553 -3.91881079 34.74173955 -11.16015625 34.05859375 C-16.60279647 32.06993675 -20.53812548 28.83921792 -23.47265625 23.80859375 C-24.9302802 17.97809794 -25.11755834 13.0585295 -22.03515625 7.74609375 C-17.05930157 0.64984645 -8.4112658 -3.66566918 0 0 Z " fill="#ECECEE" transform="translate(116.16015625,119.94140625)"/>
<path d="M0 0 C4.81722886 3.21148591 9.14571371 7.43714112 11 13 C11.5870468 18.98787734 10.34795987 23.11627872 7 28 C3.66541914 31.52612336 0.44897052 33.7654832 -4.48828125 34.23828125 C-10.54656353 34.39748922 -14.29956464 34.2418563 -19 30 C-23.73716653 24.75070735 -24.36443247 20.68128772 -24.2734375 13.79296875 C-23.84679357 9.43510573 -22.74329425 7.44670304 -20 4 C-13.8569362 -0.56541332 -7.41851367 -2.47283789 0 0 Z " fill="#EFEFF1" transform="translate(159,39)"/>
<path d="M0 0 C4.78978557 4.1214434 7.61529244 8.03225598 8.4375 14.375 C7.76778326 19.92408158 5.5640575 24.0188605 2.125 28.375 C-3.18700861 32.43712423 -9.53825536 32.85244514 -16 32 C-21.31565158 29.34217421 -25.10236008 25.69291975 -27 20 C-27.69448865 12.85018246 -27.46194101 7.75355552 -23 2 C-15.77840038 -3.7170997 -8.11038774 -5.11307053 0 0 Z " fill="#EDEDEF" transform="translate(162,122)"/>
<path d="M0 0 C4.72475075 3.39101115 8.18756324 6.65245694 9.24609375 12.6015625 C9.37168856 18.99015189 8.90208586 23.26541075 4.58203125 28.14453125 C0.49051546 31.75826919 -3.36638604 33.49932747 -8.7578125 34.26953125 C-13.94505368 33.5284968 -18.19191518 31.96805408 -21.83984375 28.0859375 C-25.38183209 23.33946897 -26.73949154 19.01396619 -26.671875 12.99609375 C-25.65878061 7.54832203 -21.94431125 3.05448267 -17.6328125 -0.23046875 C-11.72441232 -2.71821619 -5.77670864 -3.14820627 0 0 Z M-19.6953125 6.76953125 C-22.09096615 11.36918627 -22.13551842 15.69668856 -21.2578125 20.76953125 C-19.36954933 24.41632958 -16.66050499 26.50106959 -13.2578125 28.76953125 C-8.65597583 29.52335592 -5.0879554 29.16922969 -0.8828125 27.14453125 C3.27210687 23.38531849 4.51622781 20.35124911 5.3046875 14.83203125 C5.14046711 10.55409017 3.30925695 8.19042769 0.39453125 5.1796875 C-6.15868021 -0.41300597 -13.45529078 1.64951343 -19.6953125 6.76953125 Z " fill="#141414" transform="translate(118.2578125,160.23046875)"/>
<path d="M0 0 C4.96388445 2.57386601 8.48539093 5.97078186 11 11 C11.73610672 17.0565743 12.02710481 22.44192485 8.375 27.5625 C4.73084421 31.61999754 1.6930079 33.74352306 -3.87109375 34.2734375 C-9.5538352 34.45428362 -13.29131883 34.46156018 -18 31 C-19.546875 29.31640625 -19.546875 29.31640625 -20.75 27.5625 C-21.36101562 26.69818359 -21.36101562 26.69818359 -21.984375 25.81640625 C-24.34016701 21.60316284 -24.75364902 16.72743474 -24 12 C-21.64760536 6.4029231 -18.36418755 2.91531932 -13 0 C-8.55774061 -1.48075313 -4.55152749 -0.91598603 0 0 Z M-17 8 C-19.98098244 12.47147366 -19.86073109 16.76267014 -19 22 C-17.01897813 25.48805691 -14.60573218 28.19713391 -11 30 C-6.94619711 30.51037087 -2.8225342 30.89274541 0.921875 29.05859375 C4.14400202 26.5143895 6.18102176 24.00389364 7 20 C7.1437414 15.15771147 6.6801837 11.32792526 3.5625 7.5 C-0.4135053 3.62097044 -3.07362729 3.66429446 -8.453125 3.7109375 C-12.12655571 4.12786062 -14.25299675 5.59637215 -17 8 Z " fill="#131313" transform="translate(116,39)"/>
<path d="M0 0 C4.81722886 3.21148591 9.14571371 7.43714112 11 13 C11.5870468 18.98787734 10.34795987 23.11627872 7 28 C3.66541914 31.52612336 0.44897052 33.7654832 -4.48828125 34.23828125 C-10.54656353 34.39748922 -14.29956464 34.2418563 -19 30 C-23.73716653 24.75070735 -24.36443247 20.68128772 -24.2734375 13.79296875 C-23.84679357 9.43510573 -22.74329425 7.44670304 -20 4 C-13.8569362 -0.56541332 -7.41851367 -2.47283789 0 0 Z M-19 10 C-20.72575116 13.45150232 -20.36104194 17.2189062 -20 21 C-18.25786289 25.12611421 -15.86236489 27.73295974 -12 30 C-7.28539836 30.86274596 -3.91782509 30.45891254 0.375 28.3125 C4.42899485 24.74112359 6.15053392 22.01717826 6.5625 16.625 C6.42997799 11.9633433 4.66485044 9.60680046 1.5078125 6.3125 C-1.82009364 3.41566978 -5.12884261 3.55572323 -9.3828125 3.57421875 C-13.6768757 4.27280515 -16.24999169 6.75381282 -19 10 Z " fill="#131314" transform="translate(159,39)"/>
<path d="M0 0 C4.4012614 2.56809061 7.57722597 5.35226914 9.64453125 10.08984375 C10.38108091 15.66767291 10.44575058 20.39495671 8.01953125 25.52734375 C0.47924727 33.66291331 0.47924727 33.66291331 -5.35546875 34.08984375 C-6.44859375 34.21359375 -7.54171875 34.33734375 -8.66796875 34.46484375 C-14.80131102 33.84111403 -18.71269715 30.90110474 -22.79296875 26.40234375 C-25.52751216 20.60511171 -26.04710424 15.43371959 -24.23046875 9.27734375 C-18.84757021 0.12641624 -10.32447404 -3.98939046 0 0 Z M-19.35546875 9.08984375 C-21.34031164 13.05952952 -20.8972502 17.77385442 -20.35546875 22.08984375 C-18.69929382 25.58774018 -16.28971688 27.56283198 -12.91796875 29.46484375 C-8.30312714 30.59041488 -5.51660908 30.69363672 -1.23046875 28.46484375 C2.34202865 25.51365025 5.10609247 22.83698037 6.02734375 18.13671875 C6.3180395 13.05923302 5.07325386 9.96971407 1.64453125 6.08984375 C-2.1632847 3.4936056 -5.66922805 2.44156761 -10.32421875 2.59375 C-14.152031 3.52861953 -16.78394191 6.21271517 -19.35546875 9.08984375 Z " fill="#121212" transform="translate(117.35546875,79.91015625)"/>
<path d="M0 0 C4.21342165 2.9618333 7.10418975 5.77888218 8.6796875 10.80078125 C9.40322903 16.53743197 8.92738141 20.87324566 5.6796875 25.80078125 C-0.49323566 32.59099673 -0.49323566 32.59099673 -5.24609375 33.13671875 C-14.29298191 33.24106579 -14.29298191 33.24106579 -18.8203125 31.30078125 C-23.75164996 26.36944379 -26.60074298 22.3247847 -26.8828125 15.17578125 C-26.57392136 8.97221752 -24.41014334 5.72985587 -19.8828125 1.55078125 C-13.56598502 -2.76314971 -7.00229765 -3.61903262 0 0 Z M-21.6953125 9.67578125 C-22.99188028 14.0841117 -22.72693937 17.70930913 -21.1328125 21.98828125 C-19.06486834 25.19716012 -17.657747 26.91440523 -14.3203125 28.80078125 C-9.91490389 29.52551575 -6.24469565 29.0972815 -2.0078125 27.73828125 C1.46095759 25.23754002 3.20182932 22.79677767 4.6796875 18.80078125 C5.4035767 14.29658176 4.91691176 11.70756707 2.4296875 7.98828125 C-0.06681084 4.62109059 -2.52490638 3.08223931 -6.6875 2.4296875 C-14.01471606 2.23566464 -17.27121004 3.64291425 -21.6953125 9.67578125 Z " fill="#121212" transform="translate(76.3203125,40.19921875)"/>
<path d="M0 0 C4.75178615 2.833308 8.32785808 6.03462241 10.83984375 11.05859375 C11.60503388 17.80731983 11.00785578 23.53948301 6.83984375 29.05859375 C1.02425767 33.68732553 -3.91881079 34.74173955 -11.16015625 34.05859375 C-16.60279647 32.06993675 -20.53812548 28.83921792 -23.47265625 23.80859375 C-24.9302802 17.97809794 -25.11755834 13.0585295 -22.03515625 7.74609375 C-17.05930157 0.64984645 -8.4112658 -3.66566918 0 0 Z M-17.796875 8.86328125 C-20.32391229 12.93260777 -19.8807364 17.44821523 -19.16015625 22.05859375 C-17.55002706 25.29802034 -15.22267678 27.25254369 -12.34765625 29.43359375 C-7.8095207 30.73020391 -3.75489726 30.67474368 0.58984375 28.99609375 C4.13920305 25.93970102 6.40378268 22.61197355 7.19140625 18 C7.37831066 13.50579856 6.70877567 10.50131206 3.83984375 7.05859375 C-0.08842692 3.67845387 -3.11595113 2.39561527 -8.203125 2.66796875 C-12.28391713 3.48249812 -15.06575809 5.85188266 -17.796875 8.86328125 Z " fill="#111111" transform="translate(116.16015625,119.94140625)"/>
<path d="M0 0 C4.18300671 2.75698169 6.30247003 5.26478482 8 10 C8.75000666 15.72265352 8.23641534 20.08957672 5 25 C1.43463976 29.02245771 -1.37309735 31.64801728 -6.76953125 32.37109375 C-12.57312046 32.49774461 -17.08383346 32.54540698 -21.59765625 28.60546875 C-26.15203217 23.39140607 -27.68685674 18.22609275 -27.390625 11.328125 C-26.52111665 6.14585525 -22.89727524 2.30677899 -19 -1 C-12.39232851 -4.57171432 -6.43718568 -3.33779998 0 0 Z M-18.63671875 4.4140625 C-21.53176656 7.36984558 -23.40340517 9.78149098 -23.625 14 C-23.25034729 18.48711964 -21.63103766 21.37343457 -19 25 C-16.06595026 27.45825789 -14.37969196 27.95857906 -10.5625 28.375 C-5.31314395 27.82243621 -2.22992117 26.36288562 1.3125 22.4375 C4.11870637 18.3840908 4.41475045 15.97700537 4 11 C1.94306897 7.17998522 -0.12338304 4.04599228 -4 2 C-9.65876405 0.5704175 -14.03652344 0.43966942 -18.63671875 4.4140625 Z " fill="#121212" transform="translate(77,122)"/>
<path d="M0 0 C4.89186906 2.35534436 7.81078942 5.7173458 11 10 C12.81020278 15.43060835 12.70097747 20.09743772 10.3125 25.25 C7.78683892 29.76960404 4.88453813 32.18063559 0.125 34.25 C-4.65130103 35.39631225 -8.38948512 35.55875006 -13.0625 33.9375 C-17.63020417 30.92475895 -21.25296399 27.24110803 -23 22 C-23.59875655 16.38543042 -23.63295256 11.32375778 -20.37890625 6.5390625 C-14.71547252 0.21783618 -8.2904474 -1.36054888 0 0 Z M-18.4375 10.8125 C-19.62921224 15.44693649 -19.7126045 19.4322701 -17.75 23.75 C-17.1725 24.4925 -16.595 25.235 -16 26 C-15.46375 26.7425 -14.9275 27.485 -14.375 28.25 C-10.8049882 30.88053501 -7.37240524 31.16758348 -3 31 C2.20629341 29.49818459 4.50599998 26.61094016 7.08203125 22.05078125 C8.40552218 19.09404619 8.62299734 17.18420865 8 14 C5.52716549 9.24454901 2.80050635 6.40025318 -2 4 C-9.25945484 2.96293502 -13.86955244 5.05291395 -18.4375 10.8125 Z " fill="#0F0F0F" transform="translate(73,79)"/>
<path d="M0 0 C5.5582412 2.18624154 9.39450172 5.58056357 12 11 C13.60173389 17.08436416 13.20478867 21.44503297 10 27 C5.76336849 32.17810518 1.20034201 34.59268374 -5.4375 35.4375 C-10.76753606 34.78293417 -14.78644645 33.22424704 -18.6171875 29.375 C-22.77109134 23.74258802 -23.01334179 17.77791823 -22 11 C-17.7295722 1.60505884 -9.92793867 -1.76877068 0 0 Z M-16 9 C-18.54166825 13.244848 -18.67135452 17.16624744 -18 22 C-16.21413657 25.70910097 -14.63776905 27.54021301 -11.3125 29.9375 C-6.92156804 31.34591214 -3.4347481 31.21096443 1 30 C4.5826509 27.78942817 6.40553669 25.8475093 8 22 C8.6359083 17.94357439 8.92954126 13.81464231 7.01953125 10.0859375 C4.21249319 6.57929918 1.27360979 4.39271442 -3.1484375 3.62890625 C-9.24477379 3.44708569 -11.8239803 4.51841788 -16 9 Z " fill="#111111" transform="translate(157,79)"/>
<path d="M0 0 C4.78978557 4.1214434 7.61529244 8.03225598 8.4375 14.375 C7.76778326 19.92408158 5.5640575 24.0188605 2.125 28.375 C-3.18700861 32.43712423 -9.53825536 32.85244514 -16 32 C-21.31565158 29.34217421 -25.10236008 25.69291975 -27 20 C-27.69448865 12.85018246 -27.46194101 7.75355552 -23 2 C-15.77840038 -3.7170997 -8.11038774 -5.11307053 0 0 Z M-21.9375 7.1875 C-23.45597309 11.2069876 -23.6731919 14.75889103 -23 19 C-20.80613412 23.38773175 -18.55479418 26.09334197 -14 28 C-8.78665994 28.56872801 -5.37346615 27.9156441 -1 25 C2.28416064 21.45656352 3.2890946 18.66178088 3.5 13.9375 C3.35128364 10.52215189 3.05417863 9.09431095 1.3125 6.0625 C-2.24213766 2.89214749 -4.57056254 1.18529745 -9.375 0.5625 C-14.75435638 1.21173267 -18.2692726 3.04595293 -21.9375 7.1875 Z " fill="#131313" transform="translate(162,122)"/>
<path d="M0 0 C2.69990662 1.79993774 4.5418865 3.083773 6 6 C6.4375 9.3125 6.4375 9.3125 6 13 C3.113795 16.22980084 1.22140391 17.77566051 -3.0625 18.5625 C-6.86464154 17.83443034 -8.44213573 16.92327345 -11 14 C-11.97852887 11.27491088 -12.30878295 8.88197423 -12 6 C-8.74238589 0.72041851 -6.13812058 -0.60177653 0 0 Z " fill="#0B0B0B" transform="translate(155,87)"/>
<path d="M0 0 C3.5 0.625 3.5 0.625 6.4375 2.625 C8.71713788 5.94083691 9.31667462 7.73402711 9.046875 11.68359375 C7.98777812 15.44338767 5.77523158 16.77896038 2.5 18.625 C-1.80444539 18.77342915 -3.68423621 18.33617869 -6.9375 15.5 C-8.93514338 11.82433618 -9.16350721 9.75348931 -8.5 5.625 C-5.90783917 1.93313458 -4.45850936 0.79616239 0 0 Z " fill="#050506" transform="translate(109.5,166.375)"/>
<path d="M0 0 C3.5 0.625 3.5 0.625 6.4375 2.625 C9.29117716 6.77580314 9.2099846 8.6551078 8.5 13.625 C6.36398066 16.95719018 4.8672811 17.51815459 1.0625 18.625 C-2.5 18.625 -2.5 18.625 -5.375 16.8125 C-8.05746728 14.05113662 -8.43791719 13.17339814 -8.875 9.3125 C-8.5 5.625 -8.5 5.625 -6.4375 2.6875 C-3.5 0.625 -3.5 0.625 0 0 Z " fill="#080808" transform="translate(109.5,46.375)"/>
<path d="M0 0 C3 2.0625 3 2.0625 5 5 C5.7878128 9.4117517 5.52975133 11.22192774 3 14.9375 C-1.15080314 17.79117716 -3.0301078 17.7099846 -8 17 C-10.5 15.5625 -10.5 15.5625 -12 13 C-12.76004105 8.68518361 -12.73570183 5.25682396 -10.5 1.4375 C-6.99753422 -0.57641782 -3.87856287 -0.87555677 0 0 Z " fill="#060606" transform="translate(71,128)"/>
<path d="M0 0 C0 0.33 0 0.66 0 1 C-1.6396875 1.4021875 -1.6396875 1.4021875 -3.3125 1.8125 C-7.4028906 3.00905129 -7.4028906 3.00905129 -10 6 C-10.7269226 9.10839021 -10.7269226 9.10839021 -11 12 C-11.33 12 -11.66 12 -12 12 C-12.4206933 7.70892835 -12.45543836 5.64865463 -9.9375 2.0625 C-6.35134537 -0.45543836 -4.29107165 -0.4206933 0 0 Z " fill="#252525" transform="translate(113,167)"/>
<path d="M0 0 C0.99 0.33 1.98 0.66 3 1 C0.69 3.31 -1.62 5.62 -4 8 C-4 4.09161134 -2.49432124 2.88405893 0 0 Z " fill="#242424" transform="translate(56,82)"/>
</svg>
